# xmcd
#
# Track frame offsets: 
#        150
#        23224
#        41224
#        65749
#        93952
#        112550
#        135874
#        165424
#        205549
#        223025
#        257601
#        275362
#
# Disc length: 4078 seconds
#
# Revision: 1
# Processed by: cddbd v1.5.2PL0 Copyright (c) Steve Scherf et al.
# Submitted via: ExactAudioCopyFreeDBPlugin 1.0
#
DISCID=9a0fec0c
DTITLE=Hot Tuna - Setlist: The Very Best of Hot Tuna Live
DYEAR=2011
DGENRE=Psychedelic
TTITLE0=Hesitation Blues
TTITLE1=How Long Blues
TTITLE2=Mann's Fate
TTITLE3=Death Don't Have No Mercy
TTITLE4=Know You Rider
TTITLE5=Watch the North Wind Rise
TTITLE6=Winin' Boys Blues
TTITLE7=Funky #7
TTITLE8=I See The Light
TTITLE9=Keep Your Lamps Trimmed and Burning
TTITLE10=Been So Long
TTITLE11=Hit Single #1
EXTD=YEAR: 1970
EXTT0=
EXTT1=
EXTT2=
EXTT3=
EXTT4=
EXTT5=
EXTT6=
EXTT7=
EXTT8=
EXTT9=
EXTT10=
EXTT11=
PLAYORDER=
